<?xml version="1.0" encoding="UTF-8" standalone="no"?>
<svg width="64px" height="14px" viewBox="0 0 64 14" version="1.1" xmlns="http://www.w3.org/2000/svg" xmlns:xlink="http://www.w3.org/1999/xlink" xmlns:sketch="http://www.bohemiancoding.com/sketch/ns">
    <!-- Generator: Sketch 3.2 (9961) - http://www.bohemiancoding.com/sketch -->
    <title>Fill 1</title>
    <desc>Created with Sketch.</desc>
    <defs></defs>
    <g id="Visual-Design" stroke="none" stroke-width="1" fill="none" fill-rule="evenodd" sketch:type="MSPage">
        <g id="branch-list" sketch:type="MSArtboardGroup" transform="translate(-158.000000, -433.000000)" fill="#999999">
            <path d="M165.623678,439.476454 C166.443658,439.028571 166.79969,438.400584 166.79969,437.435734 L166.79969,436.109302 C166.79969,434.176116 165.629963,433.236406 163.22382,433.236406 L158.335364,433.236406 C158.150211,433.236406 158,433.385349 158,433.56915 L158,445.993155 C158,446.177062 158.150211,446.326004 158.335364,446.326004 L163.572714,446.326004 C165.906841,446.326004 167.245635,445.201754 167.245635,443.241737 L167.245635,441.876855 C167.245635,440.708239 166.646816,439.835289 165.623678,439.476454 L165.623678,439.476454 Z M160.730641,435.52135 L162.93288,435.52135 C163.931196,435.52135 164.068943,435.951698 164.068943,436.416905 L164.068943,437.55119 C164.068943,438.286712 163.723351,438.600653 162.913598,438.600653 L162.4358,438.600653 C162.250433,438.600653 162.100222,438.749489 162.100222,438.93329 L162.100222,440.494755 C162.100222,440.678556 162.250433,440.827498 162.4358,440.827498 L163.301376,440.827498 C164.163224,440.827498 164.514888,441.159397 164.514888,441.972981 L164.514888,442.934134 C164.514888,443.761873 164.154701,444.041271 163.088098,444.041271 L160.730641,444.041271 L160.730641,435.52135 Z M171.996664,436.485883 C170.992915,436.485883 169.77184,436.642854 168.885596,436.885704 C168.72079,436.93102 168.616601,437.092005 168.643874,437.259433 L168.875795,438.68611 C168.890177,438.775158 168.940567,438.854383 169.015033,438.905931 C169.089499,438.957586 169.181863,438.977128 169.271137,438.959804 C170.095592,438.800616 170.94636,438.71294 171.667053,438.71294 C173.097784,438.71294 173.326722,439.012304 173.326722,439.973879 L173.326722,440.811336 L171.201825,440.811336 C169.171103,440.811336 168.304674,441.641716 168.304674,443.587895 C168.304674,445.450202 169.254731,446.518256 170.910992,446.518256 C171.869145,446.518256 172.828576,446.25449 173.634814,445.772277 L173.719721,446.08083 C173.759457,446.225653 173.892197,446.326004 174.043473,446.326004 L175.64423,446.326004 C175.829596,446.326004 175.979807,446.177062 175.979807,445.99326 L175.979807,440.012435 C175.979807,437.441649 174.900314,436.485883 171.996664,436.485883 Z M173.326722,442.788466 L173.326722,443.945779 C172.998176,444.119545 172.403086,444.368205 171.686442,444.368205 C171.06866,444.368205 170.880417,444.181341 170.880417,443.56867 C170.880417,442.97364 170.996963,442.788466 171.725326,442.788466 L173.326722,442.788466 Z M189.272611,436.485883 C188.203345,436.485883 186.718814,436.866056 185.534067,437.438375 C185.171324,436.806162 184.551304,436.485883 183.688391,436.485883 C182.637661,436.485883 181.206717,436.845035 179.997893,437.407741 L179.853009,436.917393 C179.811248,436.775529 179.680107,436.678135 179.530961,436.678135 L178.06305,436.678135 C177.87779,436.678135 177.727579,436.827077 177.727579,437.010984 L177.727579,445.99326 C177.727579,446.177062 177.87779,446.326004 178.06305,446.326004 L180.0453,446.326004 C180.230666,446.326004 180.380984,446.177062 180.380984,445.99326 L180.380984,439.772226 C181.095284,439.412124 182.09914,439.039768 182.69945,439.039768 C183.145928,439.039768 183.311799,439.204239 183.311799,439.647051 L183.311799,445.99326 C183.311799,446.177062 183.46201,446.326004 183.647483,446.326004 L185.62952,446.326004 C185.814886,446.326004 185.965097,446.177062 185.965097,445.99326 L185.965097,439.768529 C186.680037,439.375892 187.742485,439.039768 188.28367,439.039768 C188.730254,439.039768 188.896019,439.204239 188.896019,439.647051 L188.896019,445.99326 C188.896019,446.177062 189.04623,446.326004 189.231703,446.326004 L191.21374,446.326004 C191.399106,446.326004 191.549317,446.177062 191.549317,445.99326 L191.549317,439.397124 C191.549317,437.465311 190.783242,436.485883 189.272611,436.485883 Z M198.695196,436.485883 C197.712647,436.485883 196.719765,436.726832 196.046799,436.976548 L196.046799,433.332849 C196.046799,433.149048 195.896588,433 195.711222,433 L193.729078,433 C193.543925,433 193.393714,433.149048 193.393714,433.332849 L193.393714,445.89143 C193.393714,446.052098 193.509621,446.189843 193.668994,446.218681 C194.891774,446.43977 196.336461,446.518256 197.202037,446.518256 C200.926093,446.518256 201.689292,444.947179 201.689292,442.588292 L201.689292,439.839303 C201.689292,437.614148 200.681814,436.485883 198.695196,436.485883 Z M197.318371,444.233629 C196.816283,444.233629 196.398676,444.213875 196.046799,444.173418 L196.046799,439.2579 C196.592139,439.015684 197.360984,438.770721 197.9777,438.770721 C198.7295,438.770721 199.035994,439.063536 199.035994,439.781522 L199.035994,442.664981 C199.035994,443.705359 198.770302,444.233629 197.318371,444.233629 Z M207.158244,436.485883 C204.374976,436.485883 202.903762,437.811681 202.903762,440.320038 L202.903762,442.684418 C202.903762,445.192564 204.374976,446.518256 207.158244,446.518256 C209.941618,446.518256 211.412725,445.192564 211.412725,442.684418 L211.412725,440.320038 C211.412725,437.811681 209.941618,436.485883 207.158244,436.485883 Z M205.55706,440.243032 C205.55706,439.211105 206.035924,438.770721 207.158244,438.770721 C208.280563,438.770721 208.759427,439.211105 208.759427,440.243032 L208.759427,442.761213 C208.759427,443.793246 208.280563,444.233629 207.158244,444.233629 C206.035924,444.233629 205.55706,443.793246 205.55706,442.761213 L205.55706,440.243032 Z M216.78633,436.485883 C214.002956,436.485883 212.531742,437.811681 212.531742,440.320038 L212.531742,442.684418 C212.531742,445.192564 214.002956,446.518256 216.78633,446.518256 C219.569491,446.518256 221.040705,445.192564 221.040705,442.684418 L221.040705,440.320038 C221.040705,437.811681 219.569491,436.485883 216.78633,436.485883 Z M215.18504,440.243032 C215.18504,439.211105 215.663904,438.770721 216.78633,438.770721 C217.908437,438.770721 218.3873,439.211105 218.3873,440.243032 L218.3873,442.761213 C218.3873,443.793246 217.908437,444.233629 216.78633,444.233629 C215.663904,444.233629 215.18504,443.793246 215.18504,442.761213 L215.18504,440.243032 L215.18504,440.243032 Z" id="Fill-1" sketch:type="MSShapeGroup"></path>
        </g>
    </g>
</svg>