<?xml version="1.0" encoding="UTF-8" standalone="no"?>
<svg width="34px" height="31px" viewBox="0 0 34 31" version="1.1" xmlns="http://www.w3.org/2000/svg" xmlns:xlink="http://www.w3.org/1999/xlink" xmlns:sketch="http://www.bohemiancoding.com/sketch/ns">
    <!-- Generator: Sketch 3.2 (9961) - http://www.bohemiancoding.com/sketch -->
    <title>logo-atlassian-charlie</title>
    <desc>Created with Sketch.</desc>
    <defs></defs>
    <g id="Visual-Design" stroke="none" stroke-width="1" fill="none" fill-rule="evenodd" sketch:type="MSPage">
        <g id="1-splash" sketch:type="MSArtboardGroup" transform="translate(-173.000000, -390.000000)" fill-opacity="0.25" fill="#000000">
            <path d="M206.349825,390.505762 C206.203402,390.309388 205.96952,390.191996 205.725,390.191996 C205.598592,390.191996 205.473987,390.223914 205.36471,390.283601 C200.781572,392.792462 195.468299,394.119473 189.999766,394.120735 C184.531052,394.119473 179.218139,392.792642 174.635001,390.283782 C174.525904,390.223914 174.4013,390.192177 174.274892,390.192177 C174.030011,390.192177 173.79649,390.309388 173.650247,390.505221 C173.433316,390.79356 173.426283,391.277552 173.795949,391.565892 C176.091305,393.277355 178.621624,394.613383 181.31658,395.526909 C184.110174,396.474696 187.031437,396.955984 189.998684,396.957246 L190.000848,396.957246 C192.968455,396.955984 195.889538,396.474696 198.682771,395.526909 C201.378268,394.613022 203.908406,393.277355 206.206828,391.563908 C206.573428,391.277372 206.566396,390.79338 206.349825,390.505762 Z M201.082354,397.652543 C200.973258,397.569593 200.841981,397.526496 200.708901,397.526496 C200.635149,397.526496 200.560314,397.54002 200.489626,397.567069 C199.161173,398.075224 197.812162,398.460939 196.580904,398.747656 C196.329891,398.806262 196.127026,398.992717 196.042814,399.216861 C195.145698,401.674149 192.85503,404.013865 190.45166,406.464841 C190.355186,406.556266 190.220123,406.677083 190.000126,406.677083 C189.780671,406.677083 189.64687,406.560233 189.548593,406.464841 C187.145403,404.013865 184.854735,401.682264 183.957619,399.224796 C183.873407,399.001012 183.670361,398.814376 183.419529,398.755771 C182.187549,398.468874 180.835113,398.071077 179.508642,397.563282 C179.437234,397.536233 179.36276,397.522709 179.288646,397.522709 C179.155747,397.522709 179.026995,397.564544 178.918078,397.647674 C178.747671,397.777508 178.659492,397.988127 178.679509,398.190452 C178.883095,400.233894 179.69041,402.231533 181.147616,404.324745 C182.517364,406.293172 184.304023,408.114634 186.031355,409.876588 C189.21409,413.122797 192.220647,416.188681 192.484463,419.744148 C192.508265,420.064946 192.775507,420.313614 193.097748,420.313614 L196.836965,420.313614 C197.005388,420.313614 197.166238,420.244369 197.282548,420.122289 C197.398316,420.000209 197.459627,419.836654 197.451152,419.668051 C197.33358,417.291188 196.438988,414.910719 194.716344,412.39158 C194.355334,411.863228 193.968717,411.349482 193.564428,410.846556 C193.400152,410.641707 193.468856,410.387268 193.594723,410.259057 C193.718787,410.131748 193.843571,410.00498 193.969078,409.876588 C195.69659,408.114453 197.482889,406.293172 198.852997,404.324745 C200.310023,402.231353 201.117157,400.245254 201.320744,398.202173 C201.341301,397.996963 201.247893,397.779131 201.082354,397.652543 Z M185.987626,412.641961 C185.899087,412.549454 185.769253,412.454964 185.55106,412.454964 C185.271917,412.454964 185.106198,412.647912 185.043806,412.743484 C183.471012,415.136936 182.658648,417.395867 182.546306,419.665977 C182.538011,419.833318 182.599682,419.999578 182.715631,420.121838 C182.83176,420.243377 182.994774,420.313524 183.162837,420.313524 L186.895923,420.313524 C187.216901,420.313524 187.487569,420.062151 187.511192,419.741894 C187.592518,418.647862 187.933152,417.551126 188.553289,416.39867 C188.768056,415.999971 188.601075,415.625437 188.477373,415.465308 C187.862104,414.665206 187.108526,413.811729 185.987626,412.641961 Z M190.003643,399.4845 C191.175394,399.4845 191.855219,399.413993 192.093969,399.413993 C192.38303,399.413993 192.659648,399.650939 192.659648,399.982918 C192.659648,400.079752 192.636747,400.148817 192.614026,400.209947 C192.458406,400.625596 191.75027,402.120489 190.431554,403.40278 C190.283687,403.546499 190.115985,403.573367 190.000397,403.573367 L189.999134,403.573367 C189.883907,403.573367 189.716205,403.546499 189.568519,403.40278 C188.249802,402.120489 187.541306,400.625596 187.386226,400.209947 C187.363325,400.148817 187.340424,400.079752 187.340424,399.982918 C187.340424,399.650939 187.617042,399.413993 187.906284,399.413993 C188.145034,399.413993 188.824678,399.4845 189.995889,399.4845 L190.003643,399.4845 Z" id="logo-atlassian-charlie" sketch:type="MSShapeGroup"></path>
        </g>
    </g>
</svg>