<?xml version="1.0" encoding="UTF-8" standalone="no"?>
<svg width="151px" height="30px" viewBox="0 0 151 30" version="1.1" xmlns="http://www.w3.org/2000/svg" xmlns:xlink="http://www.w3.org/1999/xlink" xmlns:sketch="http://www.bohemiancoding.com/sketch/ns">
    <!-- Generator: Sketch 3.2 (9961) - http://www.bohemiancoding.com/sketch -->
    <title>logo-bamboo</title>
    <desc>Created with Sketch.</desc>
    <defs></defs>
    <g id="Visual-Design" stroke="none" stroke-width="1" fill="none" fill-rule="evenodd" sketch:type="MSPage">
        <g id="1-splash" sketch:type="MSArtboardGroup" transform="translate(-115.000000, -185.000000)" fill="#FFFFFF">
            <path d="M162.691715,199.428718 C164.22032,198.588937 164.884034,197.411461 164.884034,195.602367 L164.884034,193.115308 C164.884034,189.490584 162.703432,187.728628 158.217907,187.728628 L149.104859,187.728628 C148.759696,187.728628 148.479673,188.007895 148.479673,188.352522 L148.479673,211.647531 C148.479673,211.992357 148.759696,212.271623 149.104859,212.271623 L158.868314,212.271623 C163.219587,212.271623 165.715363,210.163654 165.715363,206.488622 L165.715363,203.929469 C165.715363,201.738314 164.599046,200.101533 162.691715,199.428718 L162.691715,199.428718 Z M153.570127,192.012897 L157.675537,192.012897 C159.536595,192.012897 159.793381,192.8198 159.793381,193.692063 L159.793381,195.818848 C159.793381,197.197951 159.149131,197.78659 157.63959,197.78659 L156.74888,197.78659 C156.40332,197.78659 156.123298,198.065659 156.123298,198.410286 L156.123298,201.338032 C156.123298,201.682659 156.40332,201.961925 156.74888,201.961925 L158.362486,201.961925 C159.96914,201.961925 160.624711,202.584235 160.624711,204.109705 L160.624711,205.911867 C160.624711,207.463877 159.953252,207.98775 157.964893,207.98775 L153.570127,207.98775 L153.570127,192.012897 Z M174.57222,193.821398 C172.701034,193.821398 170.424708,194.115717 168.772574,194.57106 C168.465344,194.656029 168.271116,194.957875 168.321957,195.271802 L168.754304,197.946822 C168.781114,198.113787 168.875051,198.262334 169.013871,198.358988 C169.15269,198.45584 169.324874,198.492481 169.491299,198.459999 C171.028246,198.16152 172.614246,197.997129 173.957759,197.997129 C176.624925,197.997129 177.051711,198.558436 177.051711,200.36139 L177.051711,201.931622 L173.090483,201.931622 C169.304816,201.931622 167.689622,203.488584 167.689622,207.13767 C167.689622,210.629495 169.460715,212.632095 172.548312,212.632095 C174.334499,212.632095 176.123069,212.137536 177.626055,211.233385 L177.784338,211.811923 C177.858415,212.083465 178.105867,212.271623 178.387876,212.271623 L181.372003,212.271623 C181.717563,212.271623 181.997586,211.992357 181.997586,211.64773 L181.997586,200.433682 C181.997586,195.613458 179.985196,193.821398 174.57222,193.821398 Z M177.051711,205.63874 L177.051711,207.808702 C176.439236,208.134514 175.32987,208.600751 173.993904,208.600751 C172.842236,208.600751 172.491314,208.25038 172.491314,207.101623 C172.491314,205.985942 172.70858,205.63874 174.066392,205.63874 L177.051711,205.63874 Z M206.777998,193.821398 C204.784674,193.821398 202.017216,194.534221 199.808613,195.607319 C199.132388,194.42192 197.97655,193.821398 196.367909,193.821398 C194.409141,193.821398 191.741578,194.494807 189.488091,195.549881 L189.217998,194.630479 C189.140148,194.364482 188.895675,194.18187 188.617638,194.18187 L185.881162,194.18187 C185.5358,194.18187 185.255778,194.461136 185.255778,194.805961 L185.255778,211.64773 C185.255778,211.992357 185.5358,212.271623 185.881162,212.271623 L189.576467,212.271623 C189.922027,212.271623 190.202248,211.992357 190.202248,211.64773 L190.202248,199.98329 C191.533845,199.308099 193.40523,198.609932 194.524328,198.609932 C195.35665,198.609932 195.665867,198.918314 195.665867,199.748588 L195.665867,211.64773 C195.665867,211.992357 195.945889,212.271623 196.291648,212.271623 L199.986556,212.271623 C200.332116,212.271623 200.612138,211.992357 200.612138,211.64773 L200.612138,199.976358 C201.944927,199.240164 203.925541,198.609932 204.934417,198.609932 C205.766938,198.609932 206.075956,198.918314 206.075956,199.748588 L206.075956,211.64773 C206.075956,211.992357 206.355978,212.271623 206.701737,212.271623 L210.396645,212.271623 C210.742205,212.271623 211.022227,211.992357 211.022227,211.64773 L211.022227,199.279974 C211.022227,195.657824 209.594112,193.821398 206.777998,193.821398 Z M224.343558,193.821398 C222.511893,193.821398 220.660963,194.273176 219.406422,194.741393 L219.406422,187.909458 C219.406422,187.564831 219.126399,187.285366 218.78084,187.285366 L215.085733,187.285366 C214.74057,187.285366 214.460547,187.564831 214.460547,187.909458 L214.460547,211.456798 C214.460547,211.75805 214.676622,212.016322 214.973724,212.070393 C217.253227,212.484936 219.946409,212.632095 221.560014,212.632095 C228.502391,212.632095 229.925144,209.686326 229.925144,205.263413 L229.925144,200.10906 C229.925144,195.936893 228.047006,193.821398 224.343558,193.821398 Z M221.776883,208.34842 C220.840892,208.34842 220.06239,208.311383 219.406422,208.235525 L219.406422,199.018929 C220.423043,198.564774 221.856322,198.105469 223.006003,198.105469 C224.407507,198.105469 224.978872,198.654496 224.978872,200.00072 L224.978872,205.407206 C224.978872,207.357914 224.48357,208.34842 221.776883,208.34842 Z M240.12035,193.821398 C234.931789,193.821398 232.189156,196.307268 232.189156,201.010438 L232.189156,205.443649 C232.189156,210.146423 234.931789,212.632095 240.12035,212.632095 C245.309109,212.632095 248.051544,210.146423 248.051544,205.443649 L248.051544,201.010438 C248.051544,196.307268 245.309109,193.821398 240.12035,193.821398 Z M237.135428,200.866051 C237.135428,198.931188 238.028124,198.105469 240.12035,198.105469 C242.212576,198.105469 243.105272,198.931188 243.105272,200.866051 L243.105272,205.58764 C243.105272,207.522702 242.212576,208.34842 240.12035,208.34842 C238.028124,208.34842 237.135428,207.522702 237.135428,205.58764 L237.135428,200.866051 Z M258.069005,193.821398 C252.880246,193.821398 250.137613,196.307268 250.137613,201.010438 L250.137613,205.443649 C250.137613,210.146423 252.880246,212.632095 258.069005,212.632095 C263.257367,212.632095 266,210.146423 266,205.443649 L266,201.010438 C266,196.307268 263.257367,193.821398 258.069005,193.821398 Z M255.083884,200.866051 C255.083884,198.931188 255.976581,198.105469 258.069005,198.105469 C260.160833,198.105469 261.05353,198.931188 261.05353,200.866051 L261.05353,205.58764 C261.05353,207.522702 260.160833,208.34842 258.069005,208.34842 C255.976581,208.34842 255.083884,207.522702 255.083884,205.58764 L255.083884,200.866051 Z M115.07953,199.050421 C115.598862,199.365933 116.700483,199.703231 118.233458,199.703231 L118.23465,199.703231 C118.978993,199.703231 119.694938,199.622026 120.304632,199.467736 C120.373744,199.450505 120.423791,199.391483 120.429153,199.320775 C120.521104,198.175781 120.847797,197.026232 121.374478,195.996509 C121.394735,195.956699 121.398111,195.909957 121.383415,195.867571 C121.368718,195.825186 121.33734,195.790525 121.296627,195.77171 C120.693685,195.493235 120.07128,195.125435 119.495149,194.708317 C118.610793,194.067588 117.861485,193.342089 117.328052,192.611043 C117.289325,192.557963 117.222596,192.532809 117.158251,192.547069 C117.093706,192.561132 117.044057,192.612034 117.031347,192.676602 C116.83553,193.679784 116.560869,194.725747 116.215309,195.78597 C115.862997,196.866792 115.459248,197.894137 115.015581,198.839089 C114.979834,198.915541 115.007439,199.006451 115.07953,199.050421 Z M121.694418,204.838968 C121.739897,204.784699 121.745259,204.707257 121.708519,204.647046 C121.22255,203.854602 120.865671,202.994618 120.648008,202.09126 C120.593989,201.866064 120.547914,201.634728 120.511174,201.403986 C120.504024,201.360016 120.4792,201.320602 120.442459,201.294854 C120.40552,201.269106 120.359445,201.259599 120.315555,201.268314 C119.666737,201.39646 118.946821,201.463999 118.233458,201.463999 C117.13998,201.463999 116.105882,201.316245 115.243571,201.036186 C115.180814,201.015983 115.1121,201.034601 115.06821,201.08372 C115.024518,201.133236 115.01439,201.203548 115.042193,201.263362 C115.475136,202.190488 115.869551,203.198226 116.214912,204.258647 C116.567026,205.339073 116.845857,206.406625 117.04366,207.431593 C117.058952,207.510026 117.127468,207.565681 117.206311,207.565681 C117.210879,207.565681 117.215645,207.565483 117.220213,207.565087 C117.82812,207.514977 118.918421,207.141631 120.156479,206.24461 C120.759222,205.807687 121.291067,205.321644 121.694418,204.838968 Z M130.715118,186.867852 C130.664476,186.753175 130.561205,186.669989 130.437876,186.644439 L122.53389,185.008055 C122.376402,184.975572 122.21395,185.043111 122.126567,185.178586 C122.039382,185.313862 122.044745,185.489146 122.14027,185.618678 L123.327884,187.232484 C122.675888,187.81221 121.959348,188.387777 121.208847,188.931258 C120.287354,189.598923 119.355137,190.193504 118.439404,190.697967 C118.365327,190.738569 118.333948,190.828291 118.366518,190.90613 C118.600665,191.466248 119.293175,192.385055 120.533218,193.28366 C121.136359,193.720782 121.764325,194.074718 122.349592,194.307837 C122.369452,194.316155 122.390304,194.319918 122.410958,194.319918 C122.458225,194.319918 122.504895,194.29932 122.537068,194.261886 C123.346155,193.316539 124.347285,192.557963 125.467177,192.026366 L125.867351,194.033719 C125.898729,194.191971 126.024839,194.314175 126.184313,194.341309 C126.20596,194.344676 126.228203,194.346657 126.24985,194.346657 C126.386088,194.346657 126.514382,194.275355 126.585281,194.155725 L130.694266,187.222977 C130.758214,187.115033 130.765959,186.982728 130.715118,186.867852 Z M125.923951,208.221661 C124.839013,207.776815 123.829343,207.107367 123.003574,206.286005 C122.971798,206.254315 122.9291,206.236886 122.883422,206.237678 C122.838738,206.238669 122.795642,206.257682 122.765455,206.290561 C122.314837,206.774425 121.771673,207.251159 121.194548,207.669267 C120.310193,208.310392 119.386118,208.796633 118.523609,209.075702 C118.460654,209.096103 118.416168,209.151362 118.409813,209.21692 C118.403259,209.282478 118.436623,209.345462 118.494415,209.37735 C119.390488,209.873494 120.304037,210.457776 121.208847,211.113359 C122.145235,211.791918 123.010922,212.501969 123.781282,213.223903 C123.813058,213.253811 123.853969,213.268665 123.895078,213.268665 C123.933805,213.268665 123.972531,213.255197 124.00391,213.227865 C124.473792,212.817283 125.142867,211.865003 125.61255,210.423709 C125.841335,209.720393 125.984524,209.015492 126.026031,208.385458 C126.030598,208.314552 125.989489,208.248597 125.923951,208.221661 Z M143.582852,200.950029 C143.063123,200.634319 141.961105,200.297218 140.427534,200.297218 C139.682396,200.297218 138.96665,200.378621 138.357353,200.532515 C138.288241,200.549945 138.238194,200.608967 138.232832,200.679477 C138.141278,201.824273 137.814188,202.973624 137.287904,204.003346 C137.267449,204.043354 137.264271,204.089899 137.27857,204.132482 C137.293267,204.174867 137.324844,204.209528 137.365953,204.228344 C137.967903,204.506422 138.590903,204.874024 139.166836,205.291538 C140.051191,205.932465 140.800699,206.657569 141.333933,207.388812 C141.365709,207.432187 141.415756,207.456945 141.468185,207.456945 C141.479704,207.456945 141.491818,207.455361 141.503933,207.452984 C141.568278,207.438723 141.617928,207.387822 141.630638,207.323056 C141.826654,206.321062 142.101116,205.274901 142.446874,204.213885 C142.799385,203.132469 143.202737,202.10552 143.646602,201.161163 C143.682548,201.084711 143.655142,200.993602 143.582852,200.950029 Z M136.967567,195.160888 C136.922088,195.215355 136.916726,195.292401 136.953466,195.353008 C137.439633,196.145254 137.796513,197.005039 138.013977,197.908596 C138.068393,198.133792 138.11407,198.36493 138.15101,198.595671 C138.157961,198.640235 138.182785,198.679649 138.219526,198.705595 C138.256862,198.731145 138.30254,198.74085 138.346827,198.731938 C138.995049,198.603792 139.714966,198.536055 140.428924,198.536055 C141.522005,198.536055 142.556103,198.684007 143.418414,198.963868 C143.435493,198.969413 143.452572,198.971988 143.469652,198.971988 L143.472035,198.971988 C143.563589,198.97694 143.639453,198.898507 143.639453,198.806805 C143.639453,198.769569 143.62714,198.735305 143.606287,198.707378 C143.178706,197.788768 142.788859,196.791132 142.447271,195.741208 C142.095356,194.66098 141.816525,193.593429 141.618325,192.568262 C141.602437,192.485472 141.525183,192.428431 141.442169,192.434769 C140.834659,192.48468 139.744358,192.857828 138.505506,193.755443 C137.902763,194.192367 137.370918,194.67841 136.967567,195.160888 Z M132.738431,191.826918 C133.823369,192.271962 134.83304,192.941212 135.658411,193.762771 C135.689392,193.793669 135.731694,193.8109 135.775584,193.8109 L135.778563,193.8109 C135.823644,193.810108 135.866343,193.791094 135.896927,193.758216 C136.347346,193.274352 136.890312,192.797419 137.467437,192.379509 C138.352189,191.738384 139.275866,191.251945 140.138574,190.973074 C140.201331,190.952674 140.246016,190.897217 140.252172,190.831856 C140.258726,190.766496 140.225362,190.703314 140.167967,190.671229 C139.271497,190.175282 138.358544,189.591199 137.453138,188.935615 C136.517544,188.257452 135.651857,187.547204 134.880703,186.824675 C134.818145,186.766049 134.722024,186.76486 134.658075,186.820912 C134.188392,187.231494 133.519316,188.183972 133.049832,189.624869 C132.821047,190.327988 132.677858,191.032691 132.635954,191.663121 C132.631387,191.734027 132.672496,191.799981 132.738431,191.826918 Z M138.128767,206.716195 C137.525626,206.279073 136.89766,205.925137 136.31279,205.691821 C136.246856,205.665676 136.17119,205.684096 136.124917,205.738167 C135.315632,206.683317 134.314898,207.441892 133.195007,207.973688 L132.794634,205.966334 C132.763255,205.808281 132.637146,205.686077 132.477672,205.658942 C132.318397,205.632204 132.15932,205.705289 132.076704,205.844328 L127.967719,212.776878 C127.903771,212.88502 127.896026,213.017127 127.946866,213.132003 C127.997707,213.246879 128.10078,213.330064 128.224109,213.355416 L136.128094,214.991801 C136.154905,214.997148 136.181319,214.999921 136.207732,214.999921 C136.42182,215.004279 136.601353,214.827014 136.601353,214.611127 C136.601353,214.507144 136.560243,214.412669 136.493514,214.343149 L135.3343,212.76757 C135.986296,212.187843 136.702637,211.612277 137.453138,211.068598 C138.375624,210.400338 139.307245,209.806153 140.222978,209.302285 C140.296658,209.261286 140.328235,209.171366 140.295665,209.093726 C140.06132,208.533806 139.369009,207.614998 138.128767,206.716195 Z" id="logo-bamboo" sketch:type="MSShapeGroup"></path>
        </g>
    </g>
</svg>