<?xml version="1.0" encoding="UTF-8" standalone="no"?>
<svg width="28px" height="29px" viewBox="0 0 28 29" version="1.1" xmlns="http://www.w3.org/2000/svg" xmlns:xlink="http://www.w3.org/1999/xlink" xmlns:sketch="http://www.bohemiancoding.com/sketch/ns">
    <!-- Generator: Sketch 3.2 (9961) - http://www.bohemiancoding.com/sketch -->
    <title>bamboo-spinner</title>
    <desc>Created with Sketch.</desc>
    <defs></defs>
    <style type="text/css" >
        #Visual-Design {
            -webkit-animation: revealFrames ease-in-out 0.4s;
            -webkit-animation-iteration-count: 1;
            -webkit-animation-fill-mode:forwards;
            -webkit-transform-origin: 50% 50%;
        }

        @-webkit-keyframes revealFrames {
          0% {
            -webkit-transform:  scaleX(0) scaleY(0) ;
          }
          70% {
            -webkit-transform:  scaleX(1.1) scaleY(1.1) ;
          }
          100% {
            -webkit-transform:  scaleX(1) scaleY(1) ;
          }
        }

        #right-1,
        #right-2,
        #right-3,
        #right-4,
        #left-1,
        #left-2,
        #left-3,
        #left-4 {
            fill: #999999;
            opacity: 0;
            -webkit-animation: animationFrames ease-out 1.5s;
            -webkit-animation-iteration-count: infinite;
            -webkit-animation-fill-mode:forwards;
        }

        #right-2 {
            -webkit-animation-delay: 0.05s;
        }

        #right-3 {
            -webkit-animation-delay: 0.15s;
        }

        #right-4 {
            -webkit-animation-delay: 0.2s;
        }

        #left-1 {
            -webkit-animation-delay: 0.25s;
        }

        #left-2 {
            -webkit-animation-delay: 0.3s;
        }

        #left-3 {
            -webkit-animation-delay: 0.35s;
        }

        #left-4 {
            -webkit-animation-delay: 0.4s;
        }

        @-webkit-keyframes animationFrames {
          0% {
            opacity:0.3;
          }
          30% {
            opacity:0.3;
          }
          35% {
            opacity:1;
          }
          100% {
            opacity:0.1;
          }
        }


    </style>
    <g id="Visual-Design" stroke="none" stroke-width="1" fill="none" fill-rule="evenodd" sketch:type="MSPage">
        <g id="bamboo-spinner" sketch:type="MSArtboardGroup" transform="translate(0.000000, 0.058447)" fill="#2A5082">
            <path d="M15.5590071,1.73969 C15.5120903,1.63288095 15.4164169,1.55540289 15.3021607,1.53160605 L7.97964604,0.00750185233 C7.83374403,-0.0227514869 7.68324234,0.0401533221 7.60228788,0.166331883 C7.52151741,0.292325973 7.52648507,0.455583322 7.61498301,0.576227736 L8.71522768,2.07930218 C8.11119704,2.61925049 7.44737048,3.15532491 6.75208209,3.66151493 C5.89838053,4.28336863 5.03474366,4.83715231 4.18637774,5.30700143 C4.11775044,5.3448181 4.08868043,5.42838373 4.11885437,5.50088106 C4.33577552,6.02256669 4.97733959,6.87833035 6.12615694,7.71527792 C6.68492668,8.1224067 7.26669485,8.45205741 7.80890573,8.66918046 C7.82730447,8.67692827 7.84662315,8.68043323 7.86575784,8.68043323 C7.90954684,8.68043323 7.95278388,8.66124818 7.98258984,8.62638305 C8.73215452,7.7459002 9.65963502,7.03937404 10.69714,6.54425232 L11.0678746,8.41387179 C11.0969446,8.56126459 11.2137766,8.67508355 11.3615185,8.70035616 C11.3815731,8.70349218 11.4021797,8.70533689 11.4222343,8.70533689 C11.5484497,8.70533689 11.6673056,8.63892712 11.7329891,8.52750629 L15.5396885,2.07044754 C15.5989324,1.96991053 15.6061079,1.84668351 15.5590071,1.73969" id="left-4" sketch:type="MSShapeGroup"></path>
            <path d="M1.07367885,13.0863525 C1.55480591,13.3802157 2.57538404,13.6943708 3.99558281,13.6943708 L3.99668673,13.6943708 C4.68627152,13.6943708 5.34954611,13.6187374 5.91438744,13.4750341 C5.97841505,13.4589851 6.02477988,13.4040125 6.02974754,13.3381562 C6.11493371,12.271726 6.41759299,11.2010529 6.90552758,10.2419852 C6.9242943,10.2049064 6.92742208,10.1613711 6.91380701,10.1218942 C6.90019195,10.0824172 6.87112194,10.0501347 6.83340452,10.0326099 C6.27481876,9.77324287 5.69820224,9.43067915 5.16445478,9.042182 C4.34515887,8.44541643 3.6509744,7.76969703 3.15678423,7.08881243 C3.12090669,7.03937404 3.05908692,7.01594615 2.999475,7.02922811 C2.9396791,7.04232559 2.89368225,7.08973479 2.88190705,7.14987252 C2.70049547,8.08422108 2.44604089,9.0584155 2.12590281,10.0458919 C1.79950916,11.0525533 1.42546277,12.0094074 1.01443491,12.8895213 C0.981317176,12.9607273 1.00689142,13.0453998 1.07367885,13.0863525" id="left-3" sketch:type="MSShapeGroup"></path>
            <path d="M7.20193129,18.4777189 C7.2440644,18.4271737 7.24903206,18.3550453 7.21499439,18.2989659 C6.76477722,17.5608951 6.43415185,16.7599195 6.23250166,15.9185446 C6.18245709,15.7088005 6.13977201,15.4933377 6.10573434,15.2784283 C6.09911079,15.2374756 6.07611237,15.2007657 6.0420747,15.1767844 C6.00785304,15.1528031 5.96516796,15.1439485 5.92450675,15.1520652 C5.3234199,15.2714183 4.65646556,15.3343232 3.99558281,15.3343232 C2.98254816,15.3343232 2.02452575,15.1967074 1.22565245,14.9358645 C1.16751243,14.9170484 1.10385279,14.9343888 1.06319157,14.9801377 C1.02271434,15.0262556 1.01333098,15.091743 1.03908922,15.1474534 C1.44018176,16.0109649 1.80558074,16.9495563 2.12553484,17.9372172 C2.4517445,18.9435096 2.71006282,19.9378115 2.89331427,20.8924519 C2.9074813,20.9655026 2.97095696,21.0173391 3.04399996,21.0173391 C3.04823167,21.0173391 3.05264736,21.0171547 3.05687907,21.0167857 C3.62006452,20.9701144 4.63015536,20.6223855 5.77713284,19.7869137 C6.33553461,19.3799694 6.82825287,18.9272761 7.20193129,18.4777189" id="left-2" sketch:type="MSShapeGroup"></path>
            <path d="M11.120311,21.628309 C10.1151878,21.2139858 9.17979588,20.5904719 8.41477625,19.8254683 C8.38533827,19.7959528 8.34578098,19.7797193 8.30346387,19.7804572 C8.26206671,19.7813796 8.22214144,19.7990888 8.19417536,19.8297111 C7.77670794,20.2803752 7.27350239,20.7243983 6.73883499,21.1138178 C5.91953909,21.7109523 5.0634457,22.16383 4.2643884,22.4237505 C4.2060644,22.442751 4.16485122,22.4942186 4.15896362,22.5552787 C4.15289204,22.6163388 4.18380192,22.6750008 4.23734226,22.7047007 C5.06749342,23.166802 5.91383548,23.7109932 6.75208209,24.3215941 C7.61958269,24.9535937 8.42158379,25.6149244 9.13527092,26.2873233 C9.16470891,26.3151785 9.20261031,26.3290138 9.24069571,26.3290138 C9.27657325,26.3290138 9.31245079,26.3164698 9.3415208,26.2910127 C9.776835,25.9086031 10.3966886,25.0216637 10.8318188,23.6792641 C11.0437723,23.0242055 11.1764272,22.3676711 11.2148805,21.780867 C11.2191123,21.7148262 11.1810269,21.6533972 11.120311,21.628309" id="left-1" sketch:type="MSShapeGroup"></path>
            <path d="M22.4272569,20.3398416 C21.8684872,19.8859444 21.286719,19.5184254 20.7448761,19.2761549 C20.6837923,19.2490075 20.6136931,19.2681341 20.570824,19.32428 C19.8210753,20.3057016 18.8939628,21.0933891 17.8564578,21.645593 L17.4855392,19.5612032 C17.4564692,19.3970845 17.3396372,19.2701907 17.1918953,19.242015 C17.0443374,19.2142505 16.8969635,19.29014 16.8204248,19.4345151 L13.0137254,26.6331152 C12.9544814,26.7454069 12.9473059,26.8825839 12.9944067,27.0018681 C13.0415075,27.1211524 13.136997,27.2075307 13.2512531,27.2338555 L20.5737678,28.9330394 C20.5986061,28.9385922 20.6230764,28.9414715 20.6475467,28.9414715 C20.8458852,28.9459961 21.0122098,28.7619281 21.0122098,28.537756 C21.0122098,28.4297831 20.9741244,28.3316821 20.9123046,28.2594945 L19.8383701,26.6234491 C20.4424008,26.0214748 21.1060434,25.4238195 21.8013318,24.8592758 C22.6559532,24.1653704 23.5190382,23.5483828 24.3674041,23.0251773 C24.4356634,22.9826052 24.4649174,22.8892344 24.4347435,22.8086147 C24.2176383,22.2272067 23.5762582,21.2731382 22.4272569,20.3398416" id="right-4" sketch:type="MSShapeGroup"></path>
            <path d="M27.480103,14.8556194 C26.9986079,14.5615717 25.9776618,14.2476011 24.5569111,14.2476011 C23.8665904,14.2476011 23.2034998,14.3234189 22.6390264,14.4667533 C22.5749988,14.4829868 22.528634,14.5379593 22.5236663,14.6036312 C22.4388481,15.669877 22.1358209,16.7403655 21.6482542,17.6994333 C21.6293035,17.7366965 21.6263597,17.7800474 21.6396068,17.8197088 C21.6532219,17.8591857 21.6824759,17.8914682 21.7205613,17.908993 C22.2782271,18.1679911 22.8553956,18.5103704 23.3889591,18.8992365 C24.208255,19.4961865 24.9026234,20.1715369 25.3966296,20.852606 C25.4260676,20.8930053 25.4724324,20.9160642 25.5210051,20.9160642 C25.5316764,20.9160642 25.5428996,20.9145885 25.5541228,20.9123748 C25.6137347,20.8990929 25.6597316,20.8516837 25.6715068,20.7913615 C25.8531024,19.8581197 26.1073729,18.8837408 26.427695,17.8955266 C26.7542727,16.8883117 27.1279511,15.9318266 27.5391629,15.0522661 C27.5724646,14.9810601 27.5470744,14.8962031 27.480103,14.8556194" id="right-3" sketch:type="MSShapeGroup"></path>
            <path d="M21.3514826,9.46369956 C21.3093494,9.51442924 21.3043818,9.58618869 21.3384194,9.64263699 C21.7888206,10.3805233 22.119446,11.1813144 22.3209122,12.0228738 C22.3713247,12.232618 22.4136418,12.4478963 22.4478635,12.6628057 C22.4543031,12.7043118 22.4773015,12.7410217 22.5113391,12.7651874 C22.5459288,12.7889843 22.5882459,12.7980234 22.6292751,12.7897222 C23.22981,12.6703691 23.8967643,12.6072798 24.558199,12.6072798 C25.5708657,12.6072798 26.5288881,12.74508 27.3277614,13.0057384 C27.3435843,13.0109036 27.3594072,13.0133017 27.3752301,13.0133017 L27.377438,13.0133017 C27.4622562,13.0179135 27.5325394,12.9448628 27.5325394,12.8594524 C27.5325394,12.8247718 27.5211322,12.7928582 27.5018135,12.7668477 C27.1056886,11.9112685 26.7445213,10.9820851 26.428063,10.0042013 C26.1020373,8.99809329 25.843719,8.00379147 25.6600996,7.04896657 C25.6453806,6.97185745 25.5738095,6.91872963 25.4969027,6.92463272 C24.9340853,6.97111956 23.9239944,7.31866402 22.776281,8.15468922 C22.2178792,8.56163353 21.725161,9.01432679 21.3514826,9.46369956" id="right-2" sketch:type="MSShapeGroup"></path>
            <path d="M17.4334708,6.35848944 C18.438594,6.77299708 19.3739859,7.39632655 20.1386376,8.16151467 C20.1673396,8.19029224 20.2065289,8.20634126 20.2471902,8.20634126 L20.24995,8.20634126 C20.2917151,8.20560338 20.3312724,8.18789411 20.3596065,8.15727182 C20.7768899,7.70660775 21.2799115,7.26240019 21.8145788,6.87316515 C22.6342427,6.27603064 23.4899681,5.82296844 24.2892094,5.56323245 C24.3473494,5.54423188 24.3887466,5.49257984 24.3944502,5.43170422 C24.4005218,5.37082859 24.3696119,5.31198216 24.3164396,5.28209776 C23.4859204,4.82018093 22.6401303,4.27617423 21.8013318,3.6655733 C20.9345671,3.03394261 20.132566,2.37242752 19.4181429,1.69947519 C19.3601869,1.6448716 19.271137,1.64376477 19.211893,1.69597023 C18.7767628,2.07837982 18.1569093,2.96550365 17.721963,4.3075344 C17.5100096,4.96240851 17.3773546,5.6187584 17.3385333,6.20593144 C17.3343016,6.27197227 17.372387,6.3334013 17.4334708,6.35848944" id="right-1" sketch:type="MSShapeGroup"></path>
        </g>
    </g>
</svg>
